<svg xmlns="http://www.w3.org/2000/svg" viewBox="0 0 1200 675" width="1200" height="675" role="img"
     aria-label="A bar chart of eighteen UK venues' adult peak badminton court prices, normalised to a sixty-minute court and sorted cheapest first. Swansea Bay Sports Park nine pounds, Newcastle University ten pounds, Plympton Academy ten pounds fifty, Benham Sports Centre twelve pounds, Danbury twelve pounds, Codsall twelve pounds fifty, Wombourne twelve pounds fifty, Botwell Green twelve pounds seventy as an upper bound only, Pateley Bridge thirteen pounds twenty-five, Tendring thirteen pounds sixty-five, Glasgow Club fourteen pounds, Oxford fourteen pounds ninety-six, Vivacity fifteen pounds, Brunel University fifteen pounds, Castle Leisure Centre Bury fifteen pounds forty-seven, Halton fifteen pounds eighty-two, Sefton sixteen pounds, and the Eric Liddell Sports Centre in London sixteen pounds twenty. The median is thirteen pounds forty-five. Education venues are marked separately and occupy both ends of the range: the three cheapest are two universities and a state school, while the single most expensive is an independent school's sports centre and a university sits mid-table at fifteen pounds. The two venues selling less than a full hour, Bury and Halton, both finish in the four most expensive; Bury advertises the fourth cheapest headline price in the entire survey.">
  <title>The three cheapest venues are education venues. So is the most expensive.</title>

  <!--
    Data: Marketing/GEO/court-hire-survey-2026-08-26/ - 24 UK venues across 22 rows, read 2026-08-26.
    18 sell a comparable per-court unit. Published rate cards and booking pages only.
    Prices NORMALISED to 60 minutes: Halton sells 55 min, Bury sells 45 min.
    Re-run analyze.mjs in that folder to reproduce every figure here.

    CORRECTED 2026-08-26 (round 1 review): Sefton was drawn at £15.00, which is the 2025/26 column
    of a document titled "Fees and Charges 2026-27". The 2026/27 charge is £16.00, so Sefton moves
    from 13th to 17th. Headline stats are unaffected: median £13.45, Q1 £12.00, Q3 £15.00.

    COLOUR: teal = university or school of any kind. The first version reserved teal for the cheap
    end, which visually asserted "education is cheaper" - false, since the dearest venue in the
    sample is an independent school's centre and Brunel sits mid-table. Education now carries one
    colour wherever it lands, and the title states the real finding.
  -->

  <rect width="1200" height="675" fill="#ffffff"/>

  <text x="40" y="36" font-family="system-ui,sans-serif" font-size="23" fill="#0f172a" font-weight="600">What 18 UK venues charge for a badminton court</text>
  <text x="40" y="60" font-family="system-ui,sans-serif" font-size="16" fill="#64748b">Adult peak rate, normalised to a 60-minute court &#183; published prices read 26 August 2026</text>

  <g stroke="#e2e8f0" stroke-width="1">
    <line x1="540" y1="88" x2="540" y2="616"/>
    <line x1="780" y1="88" x2="780" y2="616"/>
    <line x1="1020" y1="88" x2="1020" y2="616"/>
  </g>
  <g font-family="system-ui,sans-serif" font-size="14" fill="#94a3b8" text-anchor="middle">
    <text x="540" y="638">&#163;5</text>
    <text x="780" y="638">&#163;10</text>
    <text x="1020" y="638">&#163;15</text>
  </g>

  <!-- bars. x=300 is £0; 48 units per £1. -->
  <g>
    <rect x="300" y="100" width="432"   height="20" fill="#0f766e"/>
    <rect x="300" y="129" width="480"   height="20" fill="#0f766e"/>
    <rect x="300" y="158" width="504"   height="20" fill="#0f766e"/>
    <rect x="300" y="187" width="576"   height="20" fill="#64748b"/>
    <rect x="300" y="216" width="576"   height="20" fill="#64748b"/>
    <rect x="300" y="245" width="600"   height="20" fill="#64748b"/>
    <rect x="300" y="274" width="600"   height="20" fill="#64748b"/>
    <rect x="300" y="303" width="609.6" height="20" fill="#94a3b8"/>
    <rect x="300" y="332" width="636"   height="20" fill="#64748b"/>
    <rect x="300" y="361" width="655.2" height="20" fill="#64748b"/>
    <rect x="300" y="390" width="672"   height="20" fill="#64748b"/>
    <rect x="300" y="419" width="718.1" height="20" fill="#64748b"/>
    <rect x="300" y="448" width="720"   height="20" fill="#64748b"/>
    <rect x="300" y="477" width="720"   height="20" fill="#0f766e"/>
    <rect x="300" y="506" width="742.6" height="20" fill="#64748b"/>
    <rect x="300" y="535" width="759.4" height="20" fill="#64748b"/>
    <rect x="300" y="564" width="768"   height="20" fill="#64748b"/>
    <rect x="300" y="593" width="777.6" height="20" fill="#0f766e"/>
  </g>

  <g font-family="system-ui,sans-serif" font-size="15" fill="#0f172a" text-anchor="end">
    <text x="288" y="115">Swansea Bay Sports Park</text>
    <text x="288" y="144">Newcastle University</text>
    <text x="288" y="173">Plympton Academy</text>
    <text x="288" y="202">Benham Sports Centre</text>
    <text x="288" y="231">Danbury Leisure Centre</text>
    <text x="288" y="260">Codsall Leisure Centre</text>
    <text x="288" y="289">Wombourne Leisure Centre</text>
    <text x="288" y="318">Botwell Green</text>
    <text x="288" y="347">Pateley Bridge</text>
    <text x="288" y="376">Tendring (Clacton)</text>
    <text x="288" y="405">Glasgow Club</text>
    <text x="288" y="434">Oxford City Council</text>
    <text x="288" y="463">Vivacity, Peterborough</text>
    <text x="288" y="492">Brunel University</text>
    <text x="288" y="521">Castle Leisure Centre, Bury</text>
    <text x="288" y="550">Halton</text>
    <text x="288" y="579">Sefton</text>
    <text x="288" y="608">Eric Liddell, London</text>
  </g>

  <g font-family="system-ui,sans-serif" font-size="15" fill="#0f172a" font-weight="600">
    <text x="742"    y="115">&#163;9.00</text>
    <text x="790"    y="144">&#163;10.00</text>
    <text x="814"    y="173">&#163;10.50</text>
    <text x="886"    y="202">&#163;12.00</text>
    <text x="886"    y="231">&#163;12.00</text>
    <text x="910"    y="260">&#163;12.50</text>
    <text x="910"    y="289">&#163;12.50</text>
    <text x="919.6"  y="318" fill="#64748b">&#163;12.70 or less</text>
    <text x="946"    y="347">&#163;13.25</text>
    <text x="965.2"  y="376">&#163;13.65</text>
    <text x="982"    y="405">&#163;14.00</text>
    <text x="1028.1" y="434">&#163;14.96</text>
    <text x="1030"   y="463">&#163;15.00</text>
    <text x="1030"   y="492">&#163;15.00</text>
    <text x="1052.6" y="521">&#163;15.47</text>
    <text x="1069.4" y="550">&#163;15.82</text>
    <text x="1078"   y="579">&#163;16.00</text>
    <text x="1087.6" y="608">&#163;16.20</text>
  </g>

  <!-- slot-length flags on the two rows that sell under an hour -->
  <g font-family="system-ui,sans-serif" font-size="13" fill="#ffffff">
    <text x="312" y="521">sells 45 min, advertises &#163;11.60</text>
    <text x="312" y="550">sells 55 min, advertises &#163;14.50</text>
  </g>

  <line x1="945.6" y1="88" x2="945.6" y2="616" stroke="#b45309" stroke-width="2.5" stroke-dasharray="6 5"/>
  <text x="945.6" y="80" text-anchor="middle" font-family="system-ui,sans-serif" font-size="16" fill="#b45309" font-weight="600">median &#163;13.45</text>

  <g font-family="system-ui,sans-serif" font-size="15" fill="#475569">
    <rect x="40" y="655" width="14" height="14" fill="#0f766e"/>
    <text x="60" y="667">University or school</text>
    <rect x="250" y="655" width="14" height="14" fill="#64748b"/>
    <text x="270" y="667">Council, trust or charity</text>
    <rect x="490" y="655" width="14" height="14" fill="#94a3b8"/>
    <text x="510" y="667">Upper bound only</text>
  </g>
  <text x="1160" y="667" text-anchor="end" font-family="system-ui,sans-serif" font-size="15" fill="#94a3b8">epegboard.com</text>
</svg>
